<svg width="626" height="362" viewBox="0 0 626 362" fill="none" xmlns="http://www.w3.org/2000/svg">
<g clip-path="url(#clip0_424_53)">
<path d="M14.5 269V215L117.5 53H166.5V125H138.5L83 213V215H235V269H14.5ZM139 309V252.5L140.5 229V53H205.5V309H139ZM375.656 316C352.406 315.917 332.323 310.542 315.406 299.875C298.49 289.208 285.448 273.833 276.281 253.75C267.115 233.667 262.573 209.583 262.656 181.5C262.74 153.333 267.323 129.417 276.406 109.75C285.573 90.0833 298.573 75.125 315.406 64.875C332.323 54.625 352.406 49.5 375.656 49.5C398.906 49.5 418.99 54.6667 435.906 65C452.823 75.25 465.865 90.2083 475.031 109.875C484.198 129.542 488.74 153.417 488.656 181.5C488.656 209.75 484.073 233.917 474.906 254C465.74 274.083 452.698 289.458 435.781 300.125C418.948 310.708 398.906 316 375.656 316ZM375.656 259.5C387.656 259.5 397.49 253.25 405.156 240.75C412.906 228.167 416.74 208.417 416.656 181.5C416.656 163.917 414.906 149.542 411.406 138.375C407.906 127.208 403.073 118.958 396.906 113.625C390.74 108.208 383.656 105.5 375.656 105.5C363.656 105.5 353.865 111.583 346.281 123.75C338.698 135.917 334.823 155.167 334.656 181.5C334.573 199.417 336.281 214.167 339.781 225.75C343.281 237.25 348.115 245.75 354.281 251.25C360.531 256.75 367.656 259.5 375.656 259.5ZM518.781 269V215L621.781 53H670.781V125H642.781L587.281 213V215H739.281V269H518.781ZM643.281 309V252.5L644.781 229V53H709.781V309H643.281Z" fill="white" fill-opacity="0.01"/>
<path d="M14.5 269H14V269.5H14.5V269ZM14.5 215L14.0781 214.732L14 214.855V215H14.5ZM117.5 53V52.5H117.225L117.078 52.7317L117.5 53ZM166.5 53H167V52.5H166.5V53ZM166.5 125V125.5H167V125H166.5ZM138.5 125V124.5H138.224L138.077 124.733L138.5 125ZM83 213L82.5771 212.733L82.5 212.855V213H83ZM83 215H82.5V215.5H83V215ZM235 215H235.5V214.5H235V215ZM235 269V269.5H235.5V269H235ZM139 309H138.5V309.5H139V309ZM139 252.5L138.501 252.468L138.5 252.484V252.5H139ZM140.5 229L140.999 229.032L141 229.016V229H140.5ZM140.5 53V52.5H140V53H140.5ZM205.5 53H206V52.5H205.5V53ZM205.5 309V309.5H206V309H205.5ZM15 269V215H14V269H15ZM14.9219 215.268L117.922 53.2683L117.078 52.7317L14.0781 214.732L14.9219 215.268ZM117.5 53.5H166.5V52.5H117.5V53.5ZM166 53V125H167V53H166ZM166.5 124.5H138.5V125.5H166.5V124.5ZM138.077 124.733L82.5771 212.733L83.4229 213.267L138.923 125.267L138.077 124.733ZM82.5 213V215H83.5V213H82.5ZM83 215.5H235V214.5H83V215.5ZM234.5 215V269H235.5V215H234.5ZM235 268.5H14.5V269.5H235V268.5ZM139.5 309V252.5H138.5V309H139.5ZM139.499 252.532L140.999 229.032L140.001 228.968L138.501 252.468L139.499 252.532ZM141 229V53H140V229H141ZM140.5 53.5H205.5V52.5H140.5V53.5ZM205 53V309H206V53H205ZM205.5 308.5H139V309.5H205.5V308.5ZM375.656 316L375.654 316.5H375.656V316ZM315.406 299.875L315.14 300.298L315.14 300.298L315.406 299.875ZM276.281 253.75L275.826 253.958L275.826 253.958L276.281 253.75ZM262.656 181.5L263.156 181.501L263.156 181.501L262.656 181.5ZM276.406 109.75L275.953 109.539L275.952 109.54L276.406 109.75ZM315.406 64.875L315.147 64.4474L315.146 64.4479L315.406 64.875ZM435.906 65L435.646 65.4267L435.647 65.4276L435.906 65ZM475.031 109.875L475.484 109.664L475.484 109.664L475.031 109.875ZM488.656 181.5L488.156 181.499V181.5H488.656ZM474.906 254L475.361 254.208L475.361 254.208L474.906 254ZM435.781 300.125L436.047 300.548L436.048 300.548L435.781 300.125ZM405.156 240.75L404.731 240.488L404.73 240.489L405.156 240.75ZM416.656 181.5H416.156L416.156 181.502L416.656 181.5ZM411.406 138.375L411.883 138.225L411.883 138.225L411.406 138.375ZM396.906 113.625L396.576 114.001L396.579 114.003L396.906 113.625ZM346.281 123.75L345.857 123.486L345.857 123.486L346.281 123.75ZM334.656 181.5L334.156 181.497L334.156 181.498L334.656 181.5ZM339.781 225.75L339.303 225.895L339.303 225.896L339.781 225.75ZM354.281 251.25L353.948 251.623L353.951 251.625L354.281 251.25ZM375.658 315.5C352.486 315.417 332.498 310.061 315.673 299.452L315.14 300.298C332.148 311.022 352.326 316.416 375.654 316.5L375.658 315.5ZM315.673 299.452C298.847 288.843 285.867 273.547 276.736 253.542L275.826 253.958C285.029 274.12 298.132 289.574 315.14 300.298L315.673 299.452ZM276.736 253.542C267.606 233.54 263.073 209.532 263.156 181.501L262.156 181.499C262.073 209.635 266.623 233.793 275.826 253.958L276.736 253.542ZM263.156 181.501C263.239 153.386 267.815 129.545 276.86 109.96L275.952 109.54C266.831 129.289 262.24 153.281 262.156 181.499L263.156 181.501ZM276.859 109.961C285.989 90.3746 298.926 75.4956 315.666 65.3021L315.146 64.4479C298.22 74.7544 285.157 89.7921 275.953 109.539L276.859 109.961ZM315.665 65.3026C332.491 55.1077 352.481 50 375.656 50V49C352.331 49 332.155 54.1423 315.147 64.4474L315.665 65.3026ZM375.656 50C398.83 50 418.82 55.1491 435.646 65.4267L436.167 64.5733C419.159 54.1843 398.982 49 375.656 49V50ZM435.647 65.4276C452.471 75.6213 465.449 90.5002 474.578 110.086L475.484 109.664C466.28 89.9164 453.175 74.8786 436.165 64.5724L435.647 65.4276ZM474.578 110.086C483.706 129.67 488.239 153.468 488.156 181.499L489.156 181.501C489.24 153.365 484.69 129.414 475.484 109.664L474.578 110.086ZM488.156 181.5C488.156 209.698 483.581 233.79 474.451 253.792L475.361 254.208C484.565 234.044 489.156 209.802 489.156 181.5H488.156ZM474.451 253.792C465.321 273.797 452.34 289.093 435.515 299.702L436.048 300.548C453.055 289.824 466.158 274.37 475.361 254.208L474.451 253.792ZM435.515 299.702C418.774 310.227 398.828 315.5 375.656 315.5V316.5C398.984 316.5 419.122 311.19 436.047 300.548L435.515 299.702ZM375.656 260C387.871 260 397.848 253.621 405.582 241.011L404.73 240.489C397.131 252.879 387.442 259 375.656 259V260ZM405.582 241.012C413.407 228.308 417.24 208.443 417.156 181.498L416.156 181.502C416.24 208.391 412.406 228.025 404.731 240.488L405.582 241.012ZM417.156 181.5C417.156 163.889 415.404 149.458 411.883 138.225L410.929 138.525C414.408 149.625 416.156 163.945 416.156 181.5H417.156ZM411.883 138.225C408.367 127.007 403.495 118.662 397.233 113.247L396.579 114.003C402.651 119.255 407.445 127.41 410.929 138.525L411.883 138.225ZM397.236 113.249C390.981 107.755 383.781 105 375.656 105V106C383.531 106 390.498 108.662 396.576 114.001L397.236 113.249ZM375.656 105C363.448 105 353.511 111.206 345.857 123.486L346.706 124.014C354.218 111.961 363.865 106 375.656 106V105ZM345.857 123.486C338.199 135.772 334.323 155.137 334.156 181.497L335.156 181.503C335.323 155.196 339.197 136.061 346.706 124.014L345.857 123.486ZM334.156 181.498C334.073 199.443 335.783 214.247 339.303 225.895L340.26 225.605C336.779 214.087 335.073 199.391 335.156 181.502L334.156 181.498ZM339.303 225.896C342.818 237.446 347.689 246.04 353.948 251.623L354.614 250.877C348.54 245.46 343.744 237.054 340.26 225.604L339.303 225.896ZM353.951 251.625C360.288 257.202 367.529 260 375.656 260V259C367.783 259 360.774 256.298 354.612 250.875L353.951 251.625ZM518.781 269H518.281V269.5H518.781V269ZM518.781 215L518.359 214.732L518.281 214.855V215H518.781ZM621.781 53V52.5H621.507L621.359 52.7317L621.781 53ZM670.781 53H671.281V52.5H670.781V53ZM670.781 125V125.5H671.281V125H670.781ZM642.781 125V124.5H642.505L642.358 124.733L642.781 125ZM587.281 213L586.858 212.733L586.781 212.855V213H587.281ZM587.281 215H586.781V215.5H587.281V215ZM739.281 215H739.781V214.5H739.281V215ZM739.281 269V269.5H739.781V269H739.281ZM643.281 309H642.781V309.5H643.281V309ZM643.281 252.5L642.782 252.468L642.781 252.484V252.5H643.281ZM644.781 229L645.28 229.032L645.281 229.016V229H644.781ZM644.781 53V52.5H644.281V53H644.781ZM709.781 53H710.281V52.5H709.781V53ZM709.781 309V309.5H710.281V309H709.781ZM519.281 269V215H518.281V269H519.281ZM519.203 215.268L622.203 53.2683L621.359 52.7317L518.359 214.732L519.203 215.268ZM621.781 53.5H670.781V52.5H621.781V53.5ZM670.281 53V125H671.281V53H670.281ZM670.781 124.5H642.781V125.5H670.781V124.5ZM642.358 124.733L586.858 212.733L587.704 213.267L643.204 125.267L642.358 124.733ZM586.781 213V215H587.781V213H586.781ZM587.281 215.5H739.281V214.5H587.281V215.5ZM738.781 215V269H739.781V215H738.781ZM739.281 268.5H518.781V269.5H739.281V268.5ZM643.781 309V252.5H642.781V309H643.781ZM643.78 252.532L645.28 229.032L644.282 228.968L642.782 252.468L643.78 252.532ZM645.281 229V53H644.281V229H645.281ZM644.781 53.5H709.781V52.5H644.781V53.5ZM709.281 53V309H710.281V53H709.281ZM709.781 308.5H643.281V309.5H709.781V308.5Z" fill="white"/>
</g>
<defs>
<clipPath id="clip0_424_53">
<rect width="626" height="362" fill="white"/>
</clipPath>
</defs>
</svg>
